<?xml version="1.0" encoding="utf-8" ?>
<svg xmlns="http://www.w3.org/2000/svg" xmlns:xlink="http://www.w3.org/1999/xlink" width="24" height="24" viewBox="0 0 24 24">
	<path transform="matrix(1 0 0 1 3.49805 2.38477)" d="M11.1914 15.6152C10.5508 15.6152 10.0059 15.3926 9.55664 14.9473C9.11133 14.498 8.88867 13.9512 8.88867 13.3066C8.88867 12.666 9.11133 12.1211 9.55664 11.6719C10.0059 11.2227 10.5508 10.998 11.1914 10.998C11.8359 10.998 12.3809 11.2227 12.8262 11.6719C13.2754 12.1211 13.5 12.666 13.5 13.3066C13.5 13.9512 13.2754 14.498 12.8262 14.9473C12.3809 15.3926 11.8359 15.6152 11.1914 15.6152ZM1.81055 19.1133C1.30664 19.1133 0.878906 18.9395 0.527344 18.5918C0.175781 18.2402 0 17.8125 0 17.3086L0 3.92578C0 3.41797 0.175781 2.99023 0.527344 2.64258C0.878906 2.29102 1.30664 2.11523 1.81055 2.11523L3.19336 2.11523L3.19336 0L4.73438 0L4.73438 2.11523L12.3105 2.11523L12.3105 0L13.8105 0L13.8105 2.11523L15.1934 2.11523C15.6973 2.11523 16.125 2.29102 16.4766 2.64258C16.8281 2.99023 17.0039 3.41797 17.0039 3.92578L17.0039 17.3086C17.0039 17.8125 16.8281 18.2402 16.4766 18.5918C16.125 18.9395 15.6973 19.1133 15.1934 19.1133L1.81055 19.1133ZM1.81055 17.6133L15.1934 17.6133C15.2715 17.6133 15.3418 17.582 15.4043 17.5195C15.4707 17.457 15.5039 17.3867 15.5039 17.3086L15.5039 7.92188L1.5 7.92188L1.5 17.3086C1.5 17.3867 1.53125 17.457 1.59375 17.5195C1.66016 17.582 1.73242 17.6133 1.81055 17.6133ZM1.5 6.42188L15.5039 6.42188L15.5039 3.92578C15.5039 3.84766 15.4707 3.77734 15.4043 3.71484C15.3418 3.64844 15.2715 3.61523 15.1934 3.61523L1.81055 3.61523C1.73242 3.61523 1.66016 3.64844 1.59375 3.71484C1.53125 3.77734 1.5 3.84766 1.5 3.92578L1.5 6.42188ZM1.5 6.42188L1.5 3.92578L1.5 3.71484L1.5 3.61523L1.5 3.71484L1.5 3.92578L1.5 6.42188Z" fill-rule="nonzero" fill="rgb(25, 50, 56)"/>
</svg>
