<?xml version="1.0" encoding="utf-8" ?>
<svg xmlns="http://www.w3.org/2000/svg" xmlns:xlink="http://www.w3.org/1999/xlink" width="24" height="24" viewBox="0 0 24 24">
	<path transform="matrix(1 0 0 1 2.50195 2.50195)" d="M9.49805 18.9961C8.18555 18.9961 6.95117 18.748 5.79492 18.252C4.63867 17.752 3.63281 17.0742 2.77734 16.2188C1.92188 15.3633 1.24414 14.3594 0.744141 13.207C0.248047 12.0508 0 10.8145 0 9.49805C0 8.18555 0.248047 6.95117 0.744141 5.79492C1.24414 4.63867 1.92188 3.63281 2.77734 2.77734C3.63281 1.92188 4.63672 1.24609 5.78906 0.75C6.94531 0.25 8.18164 0 9.49805 0C10.8105 0 12.0449 0.25 13.2012 0.75C14.3574 1.24609 15.3633 1.92188 16.2188 2.77734C17.0742 3.63281 17.75 4.63867 18.2461 5.79492C18.7461 6.94727 18.9961 8.18164 18.9961 9.49805C18.9961 10.8105 18.7461 12.0449 18.2461 13.2012C17.75 14.3574 17.0742 15.3633 16.2188 16.2188C15.3633 17.0742 14.3574 17.752 13.2012 18.252C12.0488 18.748 10.8145 18.9961 9.49805 18.9961ZM8.49609 17.4492L8.49609 15.498C7.94922 15.498 7.47852 15.3027 7.08398 14.9121C6.69336 14.5176 6.49805 14.0469 6.49805 13.5L6.49805 12.498L1.69922 7.69922C1.64844 8 1.60156 8.30078 1.55859 8.60156C1.51953 8.89844 1.5 9.19727 1.5 9.49805C1.5 11.5137 2.16211 13.2812 3.48633 14.8008C4.81055 16.3164 6.48047 17.1992 8.49609 17.4492ZM15.3984 14.9004C15.7305 14.5332 16.0293 14.1367 16.2949 13.7109C16.5645 13.2852 16.7852 12.8438 16.957 12.3867C17.1328 11.9258 17.2656 11.4551 17.3555 10.9746C17.4492 10.4902 17.4961 9.99805 17.4961 9.49805C17.4961 7.86133 17.043 6.36523 16.1367 5.00977C15.2344 3.6543 14.0215 2.67773 12.498 2.08008L12.498 2.49609C12.498 3.04688 12.3008 3.51953 11.9062 3.91406C11.5156 4.30469 11.0469 4.5 10.5 4.5L8.49609 4.5L8.49609 6.49805C8.49609 6.7832 8.40039 7.02148 8.20898 7.21289C8.01758 7.4043 7.78125 7.5 7.5 7.5L5.49609 7.5L5.49609 9.49805L11.4961 9.49805C11.7812 9.49805 12.0195 9.59375 12.2109 9.78516C12.4023 9.97656 12.498 10.2148 12.498 10.5L12.498 13.5L13.5 13.5C13.9336 13.5 14.3242 13.6289 14.6719 13.8867C15.0234 14.1445 15.2656 14.4824 15.3984 14.9004Z" fill-rule="nonzero" fill="rgb(25, 50, 56)"/>
</svg>
