<?xml version="1.0" encoding="utf-8" ?>
<svg xmlns="http://www.w3.org/2000/svg" xmlns:xlink="http://www.w3.org/1999/xlink" width="24" height="24" viewBox="0 0 24 24">
	<path transform="matrix(1 0 0 1 3.4043 3.38672)" d="M16.1367 17.1914L9.85547 10.9102C9.35547 11.3242 8.78125 11.6484 8.13281 11.8828C7.48438 12.1133 6.8125 12.2285 6.11719 12.2285C4.40625 12.2285 2.95898 11.6367 1.77539 10.4531C0.591797 9.26953 0 7.82422 0 6.11719C0 4.40625 0.591797 2.95898 1.77539 1.77539C2.95898 0.591797 4.4043 0 6.11133 0C7.82227 0 9.26953 0.591797 10.4531 1.77539C11.6367 2.95898 12.2285 4.4043 12.2285 6.11133C12.2285 6.82617 12.1094 7.50977 11.8711 8.16211C11.6328 8.81055 11.3125 9.375 10.9102 9.85547L17.1914 16.1367L16.1367 17.1914ZM6.11719 10.7285C7.40234 10.7285 8.49219 10.2812 9.38672 9.38672C10.2812 8.49219 10.7285 7.40039 10.7285 6.11133C10.7285 4.82227 10.2812 3.73242 9.38672 2.8418C8.49219 1.94727 7.40234 1.5 6.11719 1.5C4.82812 1.5 3.73633 1.94727 2.8418 2.8418C1.94727 3.73242 1.5 4.82227 1.5 6.11133C1.5 7.40039 1.94727 8.49219 2.8418 9.38672C3.73633 10.2812 4.82812 10.7285 6.11719 10.7285Z" fill-rule="nonzero" fill="rgb(25, 50, 56)"/>
</svg>
