<?xml version="1.0" encoding="utf-8" ?>
<svg xmlns="http://www.w3.org/2000/svg" xmlns:xlink="http://www.w3.org/1999/xlink" width="24" height="24" viewBox="0 0 24 24">
	<path transform="matrix(1 0 0 1 1.5 4.69336)" d="M16.623 9.05859L16.623 6.05859L13.623 6.05859L13.623 4.55859L16.623 4.55859L16.623 1.55859L18.123 1.55859L18.123 4.55859L21.123 4.55859L21.123 6.05859L18.123 6.05859L18.123 9.05859L16.623 9.05859ZM7.5 6.99609C6.53906 6.99609 5.71484 6.6543 5.02734 5.9707C4.34375 5.28711 4.00195 4.46289 4.00195 3.49805C4.00195 2.53711 4.34375 1.71484 5.02734 1.03125C5.71484 0.34375 6.53906 0 7.5 0C8.46094 0 9.2832 0.34375 9.9668 1.03125C10.6543 1.71484 10.998 2.53711 10.998 3.49805C10.998 4.46289 10.6543 5.28711 9.9668 5.9707C9.2832 6.6543 8.46094 6.99609 7.5 6.99609ZM0 14.6133L0 12.3926C0 11.9004 0.132812 11.4473 0.398438 11.0332C0.664062 10.6152 1.01953 10.293 1.46484 10.0664C2.45312 9.58203 3.44922 9.21875 4.45312 8.97656C5.46094 8.73438 6.47656 8.61328 7.5 8.61328C8.52344 8.61328 9.53711 8.73438 10.541 8.97656C11.5488 9.21875 12.5469 9.58203 13.5352 10.0664C13.9805 10.293 14.3359 10.6152 14.6016 11.0332C14.8672 11.4473 15 11.9004 15 12.3926L15 14.6133L0 14.6133ZM1.5 13.1133L13.5 13.1133L13.5 12.3926C13.5 12.1895 13.4414 12.002 13.3242 11.8301C13.207 11.6582 13.0469 11.5176 12.8438 11.4082C11.9844 10.9824 11.1055 10.6602 10.207 10.4414C9.3125 10.2227 8.41016 10.1133 7.5 10.1133C6.58984 10.1133 5.68555 10.2227 4.78711 10.4414C3.89258 10.6602 3.01562 10.9824 2.15625 11.4082C1.95312 11.5176 1.79297 11.6582 1.67578 11.8301C1.55859 12.002 1.5 12.1895 1.5 12.3926L1.5 13.1133ZM7.5 5.49609C8.05078 5.49609 8.52148 5.30078 8.91211 4.91016C9.30273 4.51953 9.49805 4.04883 9.49805 3.49805C9.49805 2.94727 9.30273 2.47656 8.91211 2.08594C8.52148 1.69531 8.05078 1.5 7.5 1.5C6.94922 1.5 6.47852 1.69531 6.08789 2.08594C5.69727 2.47656 5.50195 2.94727 5.50195 3.49805C5.50195 4.04883 5.69727 4.51953 6.08789 4.91016C6.47852 5.30078 6.94922 5.49609 7.5 5.49609Z" fill-rule="nonzero" fill="rgb(25, 50, 56)"/>
</svg>
