<?xml version="1.0" encoding="utf-8" ?>
<svg xmlns="http://www.w3.org/2000/svg" xmlns:xlink="http://www.w3.org/1999/xlink" width="24" height="24" viewBox="0 0 24 24">
	<path transform="matrix(1 0 0 1 1.79883 4.69336)" d="M0 14.6133L0 12.3926C0 11.877 0.132812 11.418 0.398438 11.0156C0.664062 10.6094 1.01953 10.293 1.46484 10.0664C2.41406 9.60156 3.36914 9.24414 4.33008 8.99414C5.29102 8.74023 6.34766 8.61328 7.5 8.61328C8.65234 8.61328 9.70898 8.74023 10.6699 8.99414C11.6309 9.24414 12.5859 9.60156 13.5352 10.0664C13.9805 10.293 14.3359 10.6094 14.6016 11.0156C14.8672 11.418 15 11.877 15 12.3926L15 14.6133L0 14.6133ZM16.998 14.6133L16.998 12.2695C16.998 11.6133 16.8379 10.9883 16.5176 10.3945C16.1973 9.79688 15.7402 9.28516 15.1465 8.85938C15.8184 8.96094 16.4551 9.11719 17.0566 9.32812C17.6621 9.53516 18.2383 9.78125 18.7852 10.0664C19.3008 10.3438 19.6992 10.6699 19.9805 11.0449C20.2617 11.416 20.4023 11.8242 20.4023 12.2695L20.4023 14.6133L16.998 14.6133ZM7.5 6.99609C6.53516 6.99609 5.71094 6.6543 5.02734 5.9707C4.34375 5.28711 4.00195 4.46289 4.00195 3.49805C4.00195 2.53711 4.34375 1.71484 5.02734 1.03125C5.71094 0.34375 6.53516 0 7.5 0C8.46094 0 9.2832 0.34375 9.9668 1.03125C10.6543 1.71484 10.998 2.53711 10.998 3.49805C10.998 4.46289 10.6543 5.28711 9.9668 5.9707C9.2832 6.6543 8.46094 6.99609 7.5 6.99609ZM16.1309 3.49805C16.1309 4.46289 15.7891 5.28711 15.1055 5.9707C14.4219 6.6543 13.5977 6.99609 12.6328 6.99609C12.5195 6.99609 12.375 6.98438 12.1992 6.96094C12.0273 6.93359 11.8848 6.9043 11.7715 6.87305C12.166 6.40039 12.4688 5.875 12.6797 5.29688C12.8945 4.71875 13.002 4.11914 13.002 3.49805C13.002 2.87695 12.8926 2.2793 12.6738 1.70508C12.459 1.13086 12.1582 0.603516 11.7715 0.123047C11.916 0.0722656 12.0586 0.0390625 12.1992 0.0234375C12.3438 0.0078125 12.4883 0 12.6328 0C13.5977 0 14.4219 0.34375 15.1055 1.03125C15.7891 1.71484 16.1309 2.53711 16.1309 3.49805ZM1.5 13.1133L13.5 13.1133L13.5 12.3926C13.5 12.1816 13.4473 11.9961 13.3418 11.8359C13.2363 11.6719 13.0703 11.5293 12.8438 11.4082C12.0234 10.9824 11.1758 10.6602 10.3008 10.4414C9.42969 10.2227 8.49609 10.1133 7.5 10.1133C6.50391 10.1133 5.56836 10.2227 4.69336 10.4414C3.82227 10.6602 2.97461 10.9824 2.15039 11.4082C1.92383 11.5293 1.75781 11.6719 1.65234 11.8359C1.55078 11.9961 1.5 12.1816 1.5 12.3926L1.5 13.1133ZM7.5 5.49609C8.05078 5.49609 8.52148 5.30078 8.91211 4.91016C9.30273 4.51953 9.49805 4.04883 9.49805 3.49805C9.49805 2.94727 9.30273 2.47656 8.91211 2.08594C8.52148 1.69531 8.05078 1.5 7.5 1.5C6.94922 1.5 6.47852 1.69531 6.08789 2.08594C5.69727 2.47656 5.50195 2.94727 5.50195 3.49805C5.50195 4.04883 5.69727 4.51953 6.08789 4.91016C6.47852 5.30078 6.94922 5.49609 7.5 5.49609Z" fill-rule="nonzero" fill="rgb(25, 50, 56)"/>
</svg>
