<?xml version="1.0" encoding="utf-8" ?>
<svg xmlns="http://www.w3.org/2000/svg" xmlns:xlink="http://www.w3.org/1999/xlink" width="24" height="24" viewBox="0 0 24 24">
	<path transform="matrix(1 0 0 1 4.99805 2.50195)" d="M7.00195 19.0723C6.49805 19.0723 6.0625 18.8984 5.69531 18.5508C5.32812 18.1992 5.12891 17.7715 5.09766 17.2676L8.90625 17.2676C8.875 17.7715 8.67578 18.1992 8.30859 18.5508C7.94141 18.8984 7.50586 19.0723 7.00195 19.0723ZM3.25195 15.8848L3.25195 14.3848L10.752 14.3848L10.752 15.8848L3.25195 15.8848ZM3.4043 12.9961C2.35742 12.3477 1.52734 11.498 0.914062 10.4473C0.304688 9.39648 0 8.24609 0 6.99609C0 5.04688 0.679688 3.39453 2.03906 2.03906C3.39844 0.679688 5.05273 0 7.00195 0C8.95117 0 10.6055 0.679688 11.9648 2.03906C13.3242 3.39453 14.0039 5.04688 14.0039 6.99609C14.0039 8.24609 13.6973 9.39648 13.084 10.4473C12.4746 11.498 11.6465 12.3477 10.5996 12.9961L3.4043 12.9961ZM3.84961 11.4961L10.1543 11.4961C10.9043 10.9648 11.4824 10.3086 11.8887 9.52734C12.2988 8.74219 12.5039 7.89844 12.5039 6.99609C12.5039 5.46484 11.9707 4.16602 10.9043 3.09961C9.83789 2.0332 8.53711 1.5 7.00195 1.5C5.4668 1.5 4.16602 2.0332 3.09961 3.09961C2.0332 4.16602 1.5 5.46484 1.5 6.99609C1.5 7.89844 1.70312 8.74219 2.10938 9.52734C2.51953 10.3086 3.09961 10.9648 3.84961 11.4961Z" fill-rule="nonzero" fill="rgb(25, 50, 56)"/>
</svg>
