<?xml version="1.0" encoding="utf-8" ?>
<svg xmlns="http://www.w3.org/2000/svg" xmlns:xlink="http://www.w3.org/1999/xlink" width="24" height="24" viewBox="0 0 24 24">
	<path transform="matrix(1 0 0 1 1.67578 2.13281)" d="M7.13672 19.7344L5.34961 16.7227L1.96289 15.9844L2.29102 12.4922L0 9.86719L2.29102 7.24219L1.96289 3.75L5.34961 3.01172L7.13672 0L10.3242 1.35352L13.5117 0L15.2988 3.01172L18.6855 3.75L18.3574 7.24219L20.6484 9.86719L18.3574 12.4922L18.6855 15.9844L15.2988 16.7227L13.5117 19.7344L10.3242 18.3809L7.13672 19.7344ZM7.77539 17.8184L10.3242 16.7344L12.9023 17.8184L14.3262 15.416L17.0742 14.7891L16.8223 11.9648L18.6738 9.86719L16.8223 7.73438L17.0742 4.91602L14.3262 4.31836L12.873 1.91602L10.3242 3L7.74609 1.91602L6.32227 4.31836L3.57422 4.91602L3.82617 7.73438L1.97461 9.86719L3.82617 11.9648L3.57422 14.8184L6.32227 15.416L7.77539 17.8184ZM9.27539 13.0723L14.5781 7.76953L13.5234 6.67969L9.27539 10.9336L7.125 8.8125L6.07031 9.86719L9.27539 13.0723Z" fill-rule="nonzero" fill="rgb(25, 50, 56)"/>
</svg>
