<?xml version="1.0" encoding="utf-8" ?>
<svg xmlns="http://www.w3.org/2000/svg" xmlns:xlink="http://www.w3.org/1999/xlink" width="20" height="20" viewBox="0 0 20 20">
	<path transform="matrix(1 0 0 1 1.25 2.91504)" d="M13.0127 4.4873L14.4873 4.4873L14.4873 3.0127L13.0127 3.0127L13.0127 4.4873ZM13.0127 7.82227L14.4873 7.82227L14.4873 6.34766L13.0127 6.34766L13.0127 7.82227ZM13.0127 11.1572L14.4873 11.1572L14.4873 9.68262L13.0127 9.68262L13.0127 11.1572ZM12.5 14.1699L12.5 12.9199L16.25 12.9199L16.25 1.25L8.49121 1.25L8.49121 2.74902L7.24121 1.84082L7.24121 0L17.5 0L17.5 14.1699L12.5 14.1699ZM0 14.1699L0 6.45996L5.41504 2.59766L10.835 6.45996L10.835 14.1699L6.3623 14.1699L6.3623 10.21L4.47266 10.21L4.47266 14.1699L0 14.1699ZM1.25 12.9199L3.22266 12.9199L3.22266 8.95996L7.6123 8.95996L7.6123 12.9199L9.58496 12.9199L9.58496 7.08496L5.41504 4.14062L1.25 7.08496L1.25 12.9199ZM7.6123 12.9199L7.6123 8.95996L3.22266 8.95996L3.22266 12.9199L3.22266 8.95996L5.41504 8.95996L7.6123 8.95996L7.6123 12.9199Z" fill-rule="nonzero" fill="rgb(126, 138, 140)"/>
</svg>
